# xmcd
#
# Track frame offsets:
#	150
#	15067
#	27591
#	42006
#	56961
#	70649
#	82908
#	94348
#	106818
#	121280
#	133008
#	144927
#	160172
#	174890
#	189770
#	202427
#	216862
#	231229
#	243317
#	256860
#
# Disc length: 3589 seconds
#
# Revision: 0
# Processed by: cddbd v1.5.1PL0 Copyright (c) Steve Scherf et al.
# Submitted via: EasyCDDAExtractor 8.2.1.1
#
DISCID=080e0314
DTITLE=Various Artist - The Rat Pack [CD1]
DYEAR=2004
DGENRE=Oldies
TTITLE0=Blue Skies
TTITLE1=Saturday Night Is The Loneliest Night Of The Week
TTITLE2=Sweet Lorraine
TTITLE3=I've Got A Crush On You
TTITLE4=If I Ever Love Again
TTITLE5=Lover
TTITLE6=When You're Smiling
TTITLE7=April In Paris
TTITLE8=Try A Little Tenderness
TTITLE9=That Old Black Magic
TTITLE10=The Brooklyn Bridge
TTITLE11=Body And Soul
TTITLE12=If I Only Had A Match
TTITLE13=Autumn In New York
TTITLE14=S'posin'
TTITLE15=London By Night
TTITLE16=Nevertheless
TTITLE17=Chattanoogie Shoe Shine Boy
TTITLE18=The Hucklebuck
TTITLE19=All Of Me
EXTD=CD 1\n
EXTT0=
EXTT1=
EXTT2=
EXTT3=
EXTT4=
EXTT5=
EXTT6=
EXTT7=
EXTT8=
EXTT9=
EXTT10=
EXTT11=
EXTT12=
EXTT13=
EXTT14=
EXTT15=
EXTT16=
EXTT17=
EXTT18=
EXTT19=
PLAYORDER=
